solid OpenSCAD_Model
  facet normal 1 -0 0
    outer loop
      vertex 126 0 12
      vertex 126 2 0
      vertex 126 2 12
    endloop
  endfacet
  facet normal 1 0 0
    outer loop
      vertex 126 2 0
      vertex 126 0 12
      vertex 126 0 0
    endloop
  endfacet
  facet normal -0 0 1
    outer loop
      vertex 0 2 12
      vertex 126 0 12
      vertex 126 2 12
    endloop
  endfacet
  facet normal 0 0 1
    outer loop
      vertex 126 0 12
      vertex 0 2 12
      vertex 0 0 12
    endloop
  endfacet
  facet normal 0 0 -1
    outer loop
      vertex 0 0 0
      vertex 126 2 0
      vertex 126 0 0
    endloop
  endfacet
  facet normal -0 0 -1
    outer loop
      vertex 126 2 0
      vertex 0 0 0
      vertex 0 2 0
    endloop
  endfacet
  facet normal -1 0 0
    outer loop
      vertex 0 0 0
      vertex 0 2 12
      vertex 0 2 0
    endloop
  endfacet
  facet normal -1 -0 0
    outer loop
      vertex 0 2 12
      vertex 0 0 0
      vertex 0 0 12
    endloop
  endfacet
  facet normal 0 1 0
    outer loop
      vertex 126 2 12
      vertex 119 2 10
      vertex 0 2 12
    endloop
  endfacet
  facet normal 0 1 0
    outer loop
      vertex 126 2 12
      vertex 119 2 2
      vertex 119 2 10
    endloop
  endfacet
  facet normal 0 1 0
    outer loop
      vertex 119 2 2
      vertex 126 2 0
      vertex 7 2 2
    endloop
  endfacet
  facet normal 0 1 -0
    outer loop
      vertex 126 2 0
      vertex 119 2 2
      vertex 126 2 12
    endloop
  endfacet
  facet normal 0 1 -0
    outer loop
      vertex 7 2 10
      vertex 0 2 12
      vertex 119 2 10
    endloop
  endfacet
  facet normal 0 1 -0
    outer loop
      vertex 7 2 2
      vertex 0 2 12
      vertex 7 2 10
    endloop
  endfacet
  facet normal 0 1 0
    outer loop
      vertex 7 2 2
      vertex 0 2 0
      vertex 0 2 12
    endloop
  endfacet
  facet normal 0 1 0
    outer loop
      vertex 0 2 0
      vertex 7 2 2
      vertex 126 2 0
    endloop
  endfacet
  facet normal 0 -1 0
    outer loop
      vertex 0 0 12
      vertex 7 0 10
      vertex 126 0 12
    endloop
  endfacet
  facet normal 0 -1 0
    outer loop
      vertex 0 0 12
      vertex 7 0 2
      vertex 7 0 10
    endloop
  endfacet
  facet normal 0 -1 -0
    outer loop
      vertex 7 0 2
      vertex 0 0 0
      vertex 119 0 2
    endloop
  endfacet
  facet normal 0 -1 0
    outer loop
      vertex 0 0 0
      vertex 7 0 2
      vertex 0 0 12
    endloop
  endfacet
  facet normal 0 -1 0
    outer loop
      vertex 119 0 10
      vertex 126 0 12
      vertex 7 0 10
    endloop
  endfacet
  facet normal 0 -1 0
    outer loop
      vertex 119 0 2
      vertex 126 0 12
      vertex 119 0 10
    endloop
  endfacet
  facet normal 0 -1 0
    outer loop
      vertex 119 0 2
      vertex 126 0 0
      vertex 126 0 12
    endloop
  endfacet
  facet normal 0 -1 0
    outer loop
      vertex 126 0 0
      vertex 119 0 2
      vertex 0 0 0
    endloop
  endfacet
  facet normal -1 0 0
    outer loop
      vertex 119 0 2
      vertex 119 2 10
      vertex 119 2 2
    endloop
  endfacet
  facet normal -1 -0 0
    outer loop
      vertex 119 2 10
      vertex 119 0 2
      vertex 119 0 10
    endloop
  endfacet
  facet normal 0 0 -1
    outer loop
      vertex 7 0 10
      vertex 119 2 10
      vertex 119 0 10
    endloop
  endfacet
  facet normal -0 0 -1
    outer loop
      vertex 119 2 10
      vertex 7 0 10
      vertex 7 2 10
    endloop
  endfacet
  facet normal -0 0 1
    outer loop
      vertex 7 2 2
      vertex 119 0 2
      vertex 119 2 2
    endloop
  endfacet
  facet normal 0 0 1
    outer loop
      vertex 119 0 2
      vertex 7 2 2
      vertex 7 0 2
    endloop
  endfacet
  facet normal 1 -0 0
    outer loop
      vertex 7 0 10
      vertex 7 2 2
      vertex 7 2 10
    endloop
  endfacet
  facet normal 1 0 0
    outer loop
      vertex 7 2 2
      vertex 7 0 10
      vertex 7 0 2
    endloop
  endfacet
endsolid OpenSCAD_Model
