solid OpenSCAD_Model
  facet normal 0.980785 0.195094 0
    outer loop
      vertex 5.55209 0.730947 2.75
      vertex 5.40918 1.44939 0
      vertex 5.40918 1.44939 2.75
    endloop
  endfacet
  facet normal 0.980785 0.195094 0
    outer loop
      vertex 5.40918 1.44939 0
      vertex 5.55209 0.730947 2.75
      vertex 5.55209 0.730947 0
    endloop
  endfacet
  facet normal 0.997859 0.0654048 0
    outer loop
      vertex 5.6 0 2.75
      vertex 5.55209 0.730947 0
      vertex 5.55209 0.730947 2.75
    endloop
  endfacet
  facet normal 0.997859 0.0654048 0
    outer loop
      vertex 5.55209 0.730947 0
      vertex 5.6 0 2.75
      vertex 5.6 0 0
    endloop
  endfacet
  facet normal 0.946934 0.321428 0
    outer loop
      vertex 5.40918 1.44939 2.75
      vertex 5.17373 2.14303 0
      vertex 5.17373 2.14303 2.75
    endloop
  endfacet
  facet normal 0.946934 0.321428 0
    outer loop
      vertex 5.17373 2.14303 0
      vertex 5.40918 1.44939 2.75
      vertex 5.40918 1.44939 0
    endloop
  endfacet
  facet normal -0.659341 0.751844 0
    outer loop
      vertex -3.40906 4.44278 0
      vertex -3.9598 3.9598 2.75
      vertex -3.40906 4.44278 2.75
    endloop
  endfacet
  facet normal -0.659341 0.751844 0
    outer loop
      vertex -3.9598 3.9598 2.75
      vertex -3.40906 4.44278 0
      vertex -3.9598 3.9598 0
    endloop
  endfacet
  facet normal 0.0654048 0.997859 -0
    outer loop
      vertex 0.730947 5.55209 0
      vertex 0 5.6 2.75
      vertex 0.730947 5.55209 2.75
    endloop
  endfacet
  facet normal 0.0654048 0.997859 0
    outer loop
      vertex 0 5.6 2.75
      vertex 0.730947 5.55209 0
      vertex 0 5.6 0
    endloop
  endfacet
  facet normal -0.946934 0.321428 0
    outer loop
      vertex -5.40918 1.44939 0
      vertex -5.17373 2.14303 2.75
      vertex -5.17373 2.14303 0
    endloop
  endfacet
  facet normal -0.946934 0.321428 0
    outer loop
      vertex -5.17373 2.14303 2.75
      vertex -5.40918 1.44939 0
      vertex -5.40918 1.44939 2.75
    endloop
  endfacet
  facet normal 0.980785 -0.195094 0
    outer loop
      vertex 5.40918 -1.44939 2.75
      vertex 5.55209 -0.730947 0
      vertex 5.55209 -0.730947 2.75
    endloop
  endfacet
  facet normal 0.980785 -0.195094 0
    outer loop
      vertex 5.55209 -0.730947 0
      vertex 5.40918 -1.44939 2.75
      vertex 5.40918 -1.44939 0
    endloop
  endfacet
  facet normal -0.83147 -0.555569 0
    outer loop
      vertex -4.44278 -3.40906 0
      vertex -4.84974 -2.8 2.75
      vertex -4.84974 -2.8 0
    endloop
  endfacet
  facet normal -0.83147 -0.555569 0
    outer loop
      vertex -4.84974 -2.8 2.75
      vertex -4.44278 -3.40906 0
      vertex -4.44278 -3.40906 2.75
    endloop
  endfacet
  facet normal -0.980785 0.195094 0
    outer loop
      vertex -5.55209 0.730947 0
      vertex -5.40918 1.44939 2.75
      vertex -5.40918 1.44939 0
    endloop
  endfacet
  facet normal -0.980785 0.195094 0
    outer loop
      vertex -5.40918 1.44939 2.75
      vertex -5.55209 0.730947 0
      vertex -5.55209 0.730947 2.75
    endloop
  endfacet
  facet normal -0.555569 0.83147 0
    outer loop
      vertex -2.8 4.84974 0
      vertex -3.40906 4.44278 2.75
      vertex -2.8 4.84974 2.75
    endloop
  endfacet
  facet normal -0.555569 0.83147 0
    outer loop
      vertex -3.40906 4.44278 2.75
      vertex -2.8 4.84974 0
      vertex -3.40906 4.44278 0
    endloop
  endfacet
  facet normal -0.946934 -0.321428 0
    outer loop
      vertex -5.17373 -2.14303 0
      vertex -5.40918 -1.44939 2.75
      vertex -5.40918 -1.44939 0
    endloop
  endfacet
  facet normal -0.946934 -0.321428 0
    outer loop
      vertex -5.40918 -1.44939 2.75
      vertex -5.17373 -2.14303 0
      vertex -5.17373 -2.14303 2.75
    endloop
  endfacet
  facet normal -0.980785 -0.195094 0
    outer loop
      vertex -5.40918 -1.44939 0
      vertex -5.55209 -0.730947 2.75
      vertex -5.55209 -0.730947 0
    endloop
  endfacet
  facet normal -0.980785 -0.195094 0
    outer loop
      vertex -5.55209 -0.730947 2.75
      vertex -5.40918 -1.44939 0
      vertex -5.40918 -1.44939 2.75
    endloop
  endfacet
  facet normal 0.321428 -0.946934 0
    outer loop
      vertex 1.44939 -5.40918 0
      vertex 2.14303 -5.17373 2.75
      vertex 1.44939 -5.40918 2.75
    endloop
  endfacet
  facet normal 0.321428 -0.946934 0
    outer loop
      vertex 2.14303 -5.17373 2.75
      vertex 1.44939 -5.40918 0
      vertex 2.14303 -5.17373 0
    endloop
  endfacet
  facet normal -0.751844 0.659341 0
    outer loop
      vertex -4.44278 3.40906 0
      vertex -3.9598 3.9598 2.75
      vertex -3.9598 3.9598 0
    endloop
  endfacet
  facet normal -0.751844 0.659341 0
    outer loop
      vertex -3.9598 3.9598 2.75
      vertex -4.44278 3.40906 0
      vertex -4.44278 3.40906 2.75
    endloop
  endfacet
  facet normal 0.195094 -0.980785 0
    outer loop
      vertex 0.730947 -5.55209 0
      vertex 1.44939 -5.40918 2.75
      vertex 0.730947 -5.55209 2.75
    endloop
  endfacet
  facet normal 0.195094 -0.980785 0
    outer loop
      vertex 1.44939 -5.40918 2.75
      vertex 0.730947 -5.55209 0
      vertex 1.44939 -5.40918 0
    endloop
  endfacet
  facet normal -0.321428 0.946934 0
    outer loop
      vertex -1.44939 5.40918 0
      vertex -2.14303 5.17373 2.75
      vertex -1.44939 5.40918 2.75
    endloop
  endfacet
  facet normal -0.321428 0.946934 0
    outer loop
      vertex -2.14303 5.17373 2.75
      vertex -1.44939 5.40918 0
      vertex -2.14303 5.17373 0
    endloop
  endfacet
  facet normal 0.896868 0.442298 0
    outer loop
      vertex 5.17373 2.14303 2.75
      vertex 4.84974 2.8 0
      vertex 4.84974 2.8 2.75
    endloop
  endfacet
  facet normal 0.896868 0.442298 0
    outer loop
      vertex 4.84974 2.8 0
      vertex 5.17373 2.14303 2.75
      vertex 5.17373 2.14303 0
    endloop
  endfacet
  facet normal -0.997859 -0.0654048 0
    outer loop
      vertex -5.55209 -0.730947 0
      vertex -5.6 0 2.75
      vertex -5.6 0 0
    endloop
  endfacet
  facet normal -0.997859 -0.0654048 0
    outer loop
      vertex -5.6 0 2.75
      vertex -5.55209 -0.730947 0
      vertex -5.55209 -0.730947 2.75
    endloop
  endfacet
  facet normal -0.0654048 -0.997859 0
    outer loop
      vertex -0.730947 -5.55209 0
      vertex 0 -5.6 2.75
      vertex -0.730947 -5.55209 2.75
    endloop
  endfacet
  facet normal -0.0654048 -0.997859 -0
    outer loop
      vertex 0 -5.6 2.75
      vertex -0.730947 -5.55209 0
      vertex 0 -5.6 0
    endloop
  endfacet
  facet normal 0.195094 0.980785 -0
    outer loop
      vertex 1.44939 5.40918 0
      vertex 0.730947 5.55209 2.75
      vertex 1.44939 5.40918 2.75
    endloop
  endfacet
  facet normal 0.195094 0.980785 0
    outer loop
      vertex 0.730947 5.55209 2.75
      vertex 1.44939 5.40918 0
      vertex 0.730947 5.55209 0
    endloop
  endfacet
  facet normal 0.83147 -0.555569 0
    outer loop
      vertex 4.44278 -3.40906 2.75
      vertex 4.84974 -2.8 0
      vertex 4.84974 -2.8 2.75
    endloop
  endfacet
  facet normal 0.83147 -0.555569 0
    outer loop
      vertex 4.84974 -2.8 0
      vertex 4.44278 -3.40906 2.75
      vertex 4.44278 -3.40906 0
    endloop
  endfacet
  facet normal -0.751844 -0.659341 0
    outer loop
      vertex -3.9598 -3.9598 0
      vertex -4.44278 -3.40906 2.75
      vertex -4.44278 -3.40906 0
    endloop
  endfacet
  facet normal -0.751844 -0.659341 0
    outer loop
      vertex -4.44278 -3.40906 2.75
      vertex -3.9598 -3.9598 0
      vertex -3.9598 -3.9598 2.75
    endloop
  endfacet
  facet normal -0.195094 -0.980785 0
    outer loop
      vertex -1.44939 -5.40918 0
      vertex -0.730947 -5.55209 2.75
      vertex -1.44939 -5.40918 2.75
    endloop
  endfacet
  facet normal -0.195094 -0.980785 -0
    outer loop
      vertex -0.730947 -5.55209 2.75
      vertex -1.44939 -5.40918 0
      vertex -0.730947 -5.55209 0
    endloop
  endfacet
  facet normal 0.555569 0.83147 -0
    outer loop
      vertex 3.40906 4.44278 0
      vertex 2.8 4.84974 2.75
      vertex 3.40906 4.44278 2.75
    endloop
  endfacet
  facet normal 0.555569 0.83147 0
    outer loop
      vertex 2.8 4.84974 2.75
      vertex 3.40906 4.44278 0
      vertex 2.8 4.84974 0
    endloop
  endfacet
  facet normal 0.997859 -0.0654048 0
    outer loop
      vertex 5.55209 -0.730947 2.75
      vertex 5.6 0 0
      vertex 5.6 0 2.75
    endloop
  endfacet
  facet normal 0.997859 -0.0654048 0
    outer loop
      vertex 5.6 0 0
      vertex 5.55209 -0.730947 2.75
      vertex 5.55209 -0.730947 0
    endloop
  endfacet
  facet normal -0.195094 0.980785 0
    outer loop
      vertex -0.730947 5.55209 0
      vertex -1.44939 5.40918 2.75
      vertex -0.730947 5.55209 2.75
    endloop
  endfacet
  facet normal -0.195094 0.980785 0
    outer loop
      vertex -1.44939 5.40918 2.75
      vertex -0.730947 5.55209 0
      vertex -1.44939 5.40918 0
    endloop
  endfacet
  facet normal 0.751844 0.659341 0
    outer loop
      vertex 4.44278 3.40906 2.75
      vertex 3.9598 3.9598 0
      vertex 3.9598 3.9598 2.75
    endloop
  endfacet
  facet normal 0.751844 0.659341 0
    outer loop
      vertex 3.9598 3.9598 0
      vertex 4.44278 3.40906 2.75
      vertex 4.44278 3.40906 0
    endloop
  endfacet
  facet normal 0.659341 0.751844 -0
    outer loop
      vertex 3.9598 3.9598 0
      vertex 3.40906 4.44278 2.75
      vertex 3.9598 3.9598 2.75
    endloop
  endfacet
  facet normal 0.659341 0.751844 0
    outer loop
      vertex 3.40906 4.44278 2.75
      vertex 3.9598 3.9598 0
      vertex 3.40906 4.44278 0
    endloop
  endfacet
  facet normal -0.321428 -0.946934 0
    outer loop
      vertex -2.14303 -5.17373 0
      vertex -1.44939 -5.40918 2.75
      vertex -2.14303 -5.17373 2.75
    endloop
  endfacet
  facet normal -0.321428 -0.946934 -0
    outer loop
      vertex -1.44939 -5.40918 2.75
      vertex -2.14303 -5.17373 0
      vertex -1.44939 -5.40918 0
    endloop
  endfacet
  facet normal 0.0654048 -0.997859 0
    outer loop
      vertex 0 -5.6 0
      vertex 0.730947 -5.55209 2.75
      vertex 0 -5.6 2.75
    endloop
  endfacet
  facet normal 0.0654048 -0.997859 0
    outer loop
      vertex 0.730947 -5.55209 2.75
      vertex 0 -5.6 0
      vertex 0.730947 -5.55209 0
    endloop
  endfacet
  facet normal 0.555569 -0.83147 0
    outer loop
      vertex 2.8 -4.84974 0
      vertex 3.40906 -4.44278 2.75
      vertex 2.8 -4.84974 2.75
    endloop
  endfacet
  facet normal 0.555569 -0.83147 0
    outer loop
      vertex 3.40906 -4.44278 2.75
      vertex 2.8 -4.84974 0
      vertex 3.40906 -4.44278 0
    endloop
  endfacet
  facet normal 0.946934 -0.321428 0
    outer loop
      vertex 5.17373 -2.14303 2.75
      vertex 5.40918 -1.44939 0
      vertex 5.40918 -1.44939 2.75
    endloop
  endfacet
  facet normal 0.946934 -0.321428 0
    outer loop
      vertex 5.40918 -1.44939 0
      vertex 5.17373 -2.14303 2.75
      vertex 5.17373 -2.14303 0
    endloop
  endfacet
  facet normal 0.442298 0.896868 -0
    outer loop
      vertex 2.8 4.84974 0
      vertex 2.14303 5.17373 2.75
      vertex 2.8 4.84974 2.75
    endloop
  endfacet
  facet normal 0.442298 0.896868 0
    outer loop
      vertex 2.14303 5.17373 2.75
      vertex 2.8 4.84974 0
      vertex 2.14303 5.17373 0
    endloop
  endfacet
  facet normal 0.83147 0.555569 0
    outer loop
      vertex 4.84974 2.8 2.75
      vertex 4.44278 3.40906 0
      vertex 4.44278 3.40906 2.75
    endloop
  endfacet
  facet normal 0.83147 0.555569 0
    outer loop
      vertex 4.44278 3.40906 0
      vertex 4.84974 2.8 2.75
      vertex 4.84974 2.8 0
    endloop
  endfacet
  facet normal 0.659341 -0.751844 0
    outer loop
      vertex 3.40906 -4.44278 0
      vertex 3.9598 -3.9598 2.75
      vertex 3.40906 -4.44278 2.75
    endloop
  endfacet
  facet normal 0.659341 -0.751844 0
    outer loop
      vertex 3.9598 -3.9598 2.75
      vertex 3.40906 -4.44278 0
      vertex 3.9598 -3.9598 0
    endloop
  endfacet
  facet normal 0.751844 -0.659341 0
    outer loop
      vertex 3.9598 -3.9598 2.75
      vertex 4.44278 -3.40906 0
      vertex 4.44278 -3.40906 2.75
    endloop
  endfacet
  facet normal 0.751844 -0.659341 0
    outer loop
      vertex 4.44278 -3.40906 0
      vertex 3.9598 -3.9598 2.75
      vertex 3.9598 -3.9598 0
    endloop
  endfacet
  facet normal 0.321428 0.946934 -0
    outer loop
      vertex 2.14303 5.17373 0
      vertex 1.44939 5.40918 2.75
      vertex 2.14303 5.17373 2.75
    endloop
  endfacet
  facet normal 0.321428 0.946934 0
    outer loop
      vertex 1.44939 5.40918 2.75
      vertex 2.14303 5.17373 0
      vertex 1.44939 5.40918 0
    endloop
  endfacet
  facet normal -0.0654048 0.997859 0
    outer loop
      vertex 0 5.6 0
      vertex -0.730947 5.55209 2.75
      vertex 0 5.6 2.75
    endloop
  endfacet
  facet normal -0.0654048 0.997859 0
    outer loop
      vertex -0.730947 5.55209 2.75
      vertex 0 5.6 0
      vertex -0.730947 5.55209 0
    endloop
  endfacet
  facet normal -0.659341 -0.751844 0
    outer loop
      vertex -3.9598 -3.9598 0
      vertex -3.40906 -4.44278 2.75
      vertex -3.9598 -3.9598 2.75
    endloop
  endfacet
  facet normal -0.659341 -0.751844 -0
    outer loop
      vertex -3.40906 -4.44278 2.75
      vertex -3.9598 -3.9598 0
      vertex -3.40906 -4.44278 0
    endloop
  endfacet
  facet normal 0.896868 -0.442298 0
    outer loop
      vertex 4.84974 -2.8 2.75
      vertex 5.17373 -2.14303 0
      vertex 5.17373 -2.14303 2.75
    endloop
  endfacet
  facet normal 0.896868 -0.442298 0
    outer loop
      vertex 5.17373 -2.14303 0
      vertex 4.84974 -2.8 2.75
      vertex 4.84974 -2.8 0
    endloop
  endfacet
  facet normal -0.997859 0.0654048 0
    outer loop
      vertex -5.6 0 0
      vertex -5.55209 0.730947 2.75
      vertex -5.55209 0.730947 0
    endloop
  endfacet
  facet normal -0.997859 0.0654048 0
    outer loop
      vertex -5.55209 0.730947 2.75
      vertex -5.6 0 0
      vertex -5.6 0 2.75
    endloop
  endfacet
  facet normal 0.442298 -0.896868 0
    outer loop
      vertex 2.14303 -5.17373 0
      vertex 2.8 -4.84974 2.75
      vertex 2.14303 -5.17373 2.75
    endloop
  endfacet
  facet normal 0.442298 -0.896868 0
    outer loop
      vertex 2.8 -4.84974 2.75
      vertex 2.14303 -5.17373 0
      vertex 2.8 -4.84974 0
    endloop
  endfacet
  facet normal -0.442298 -0.896868 0
    outer loop
      vertex -2.8 -4.84974 0
      vertex -2.14303 -5.17373 2.75
      vertex -2.8 -4.84974 2.75
    endloop
  endfacet
  facet normal -0.442298 -0.896868 -0
    outer loop
      vertex -2.14303 -5.17373 2.75
      vertex -2.8 -4.84974 0
      vertex -2.14303 -5.17373 0
    endloop
  endfacet
  facet normal -0.442298 0.896868 0
    outer loop
      vertex -2.14303 5.17373 0
      vertex -2.8 4.84974 2.75
      vertex -2.14303 5.17373 2.75
    endloop
  endfacet
  facet normal -0.442298 0.896868 0
    outer loop
      vertex -2.8 4.84974 2.75
      vertex -2.14303 5.17373 0
      vertex -2.8 4.84974 0
    endloop
  endfacet
  facet normal -0.896868 -0.442298 0
    outer loop
      vertex -4.84974 -2.8 0
      vertex -5.17373 -2.14303 2.75
      vertex -5.17373 -2.14303 0
    endloop
  endfacet
  facet normal -0.896868 -0.442298 0
    outer loop
      vertex -5.17373 -2.14303 2.75
      vertex -4.84974 -2.8 0
      vertex -4.84974 -2.8 2.75
    endloop
  endfacet
  facet normal 0 0 -1
    outer loop
      vertex 5.55209 -0.730947 0
      vertex 5.55209 0.730947 0
      vertex 5.6 0 0
    endloop
  endfacet
  facet normal 0 0 -1
    outer loop
      vertex 5.40918 -1.44939 0
      vertex 5.55209 0.730947 0
      vertex 5.55209 -0.730947 0
    endloop
  endfacet
  facet normal 0 0 -1
    outer loop
      vertex 5.40918 -1.44939 0
      vertex 5.40918 1.44939 0
      vertex 5.55209 0.730947 0
    endloop
  endfacet
  facet normal 0 0 -1
    outer loop
      vertex 5.17373 -2.14303 0
      vertex 5.40918 1.44939 0
      vertex 5.40918 -1.44939 0
    endloop
  endfacet
  facet normal 0 0 -1
    outer loop
      vertex 5.17373 -2.14303 0
      vertex 5.17373 2.14303 0
      vertex 5.40918 1.44939 0
    endloop
  endfacet
  facet normal 0 0 -1
    outer loop
      vertex 4.84974 -2.8 0
      vertex 5.17373 2.14303 0
      vertex 5.17373 -2.14303 0
    endloop
  endfacet
  facet normal 0 0 -1
    outer loop
      vertex 4.84974 -2.8 0
      vertex 4.84974 2.8 0
      vertex 5.17373 2.14303 0
    endloop
  endfacet
  facet normal 0 0 -1
    outer loop
      vertex 4.44278 -3.40906 0
      vertex 4.84974 2.8 0
      vertex 4.84974 -2.8 0
    endloop
  endfacet
  facet normal 0 0 -1
    outer loop
      vertex 4.44278 -3.40906 0
      vertex 4.44278 3.40906 0
      vertex 4.84974 2.8 0
    endloop
  endfacet
  facet normal 0 0 -1
    outer loop
      vertex 3.9598 -3.9598 0
      vertex 4.44278 3.40906 0
      vertex 4.44278 -3.40906 0
    endloop
  endfacet
  facet normal 0 0 -1
    outer loop
      vertex 3.9598 -3.9598 0
      vertex 3.9598 3.9598 0
      vertex 4.44278 3.40906 0
    endloop
  endfacet
  facet normal 0 0 -1
    outer loop
      vertex 3.40906 -4.44278 0
      vertex 3.9598 3.9598 0
      vertex 3.9598 -3.9598 0
    endloop
  endfacet
  facet normal 0 0 -1
    outer loop
      vertex 3.40906 -4.44278 0
      vertex 3.40906 4.44278 0
      vertex 3.9598 3.9598 0
    endloop
  endfacet
  facet normal 0 0 -1
    outer loop
      vertex 2.8 -4.84974 0
      vertex 3.40906 4.44278 0
      vertex 3.40906 -4.44278 0
    endloop
  endfacet
  facet normal 0 0 -1
    outer loop
      vertex 2.8 -4.84974 0
      vertex 2.8 4.84974 0
      vertex 3.40906 4.44278 0
    endloop
  endfacet
  facet normal 0 0 -1
    outer loop
      vertex 2.14303 -5.17373 0
      vertex 2.8 4.84974 0
      vertex 2.8 -4.84974 0
    endloop
  endfacet
  facet normal 0 0 -1
    outer loop
      vertex 2.14303 -5.17373 0
      vertex 2.14303 5.17373 0
      vertex 2.8 4.84974 0
    endloop
  endfacet
  facet normal 0 0 -1
    outer loop
      vertex 1.44939 -5.40918 0
      vertex 2.14303 5.17373 0
      vertex 2.14303 -5.17373 0
    endloop
  endfacet
  facet normal 0 0 -1
    outer loop
      vertex 1.44939 -5.40918 0
      vertex 1.44939 5.40918 0
      vertex 2.14303 5.17373 0
    endloop
  endfacet
  facet normal 0 0 -1
    outer loop
      vertex 0.730947 -5.55209 0
      vertex 1.44939 5.40918 0
      vertex 1.44939 -5.40918 0
    endloop
  endfacet
  facet normal 0 0 -1
    outer loop
      vertex 0.730947 -5.55209 0
      vertex 0.730947 5.55209 0
      vertex 1.44939 5.40918 0
    endloop
  endfacet
  facet normal 0 0 -1
    outer loop
      vertex 0 -5.6 0
      vertex 0.730947 5.55209 0
      vertex 0.730947 -5.55209 0
    endloop
  endfacet
  facet normal 0 0 -1
    outer loop
      vertex 0 -5.6 0
      vertex 0 5.6 0
      vertex 0.730947 5.55209 0
    endloop
  endfacet
  facet normal 0 0 -1
    outer loop
      vertex -0.730947 -5.55209 0
      vertex 0 5.6 0
      vertex 0 -5.6 0
    endloop
  endfacet
  facet normal 0 0 -1
    outer loop
      vertex -0.730947 -5.55209 0
      vertex -0.730947 5.55209 0
      vertex 0 5.6 0
    endloop
  endfacet
  facet normal 0 0 -1
    outer loop
      vertex -1.44939 -5.40918 0
      vertex -0.730947 5.55209 0
      vertex -0.730947 -5.55209 0
    endloop
  endfacet
  facet normal 0 0 -1
    outer loop
      vertex -1.44939 -5.40918 0
      vertex -1.44939 5.40918 0
      vertex -0.730947 5.55209 0
    endloop
  endfacet
  facet normal 0 0 -1
    outer loop
      vertex -2.14303 -5.17373 0
      vertex -1.44939 5.40918 0
      vertex -1.44939 -5.40918 0
    endloop
  endfacet
  facet normal 0 0 -1
    outer loop
      vertex -2.14303 -5.17373 0
      vertex -2.14303 5.17373 0
      vertex -1.44939 5.40918 0
    endloop
  endfacet
  facet normal 0 0 -1
    outer loop
      vertex -2.8 -4.84974 0
      vertex -2.14303 5.17373 0
      vertex -2.14303 -5.17373 0
    endloop
  endfacet
  facet normal 0 0 -1
    outer loop
      vertex -2.8 -4.84974 0
      vertex -2.8 4.84974 0
      vertex -2.14303 5.17373 0
    endloop
  endfacet
  facet normal 0 0 -1
    outer loop
      vertex -3.40906 -4.44278 0
      vertex -2.8 4.84974 0
      vertex -2.8 -4.84974 0
    endloop
  endfacet
  facet normal 0 0 -1
    outer loop
      vertex -3.40906 -4.44278 0
      vertex -3.40906 4.44278 0
      vertex -2.8 4.84974 0
    endloop
  endfacet
  facet normal 0 0 -1
    outer loop
      vertex -3.9598 -3.9598 0
      vertex -3.40906 4.44278 0
      vertex -3.40906 -4.44278 0
    endloop
  endfacet
  facet normal 0 0 -1
    outer loop
      vertex -3.9598 -3.9598 0
      vertex -3.9598 3.9598 0
      vertex -3.40906 4.44278 0
    endloop
  endfacet
  facet normal 0 0 -1
    outer loop
      vertex -4.44278 -3.40906 0
      vertex -3.9598 3.9598 0
      vertex -3.9598 -3.9598 0
    endloop
  endfacet
  facet normal 0 0 -1
    outer loop
      vertex -4.44278 -3.40906 0
      vertex -4.44278 3.40906 0
      vertex -3.9598 3.9598 0
    endloop
  endfacet
  facet normal 0 0 -1
    outer loop
      vertex -4.84974 -2.8 0
      vertex -4.44278 3.40906 0
      vertex -4.44278 -3.40906 0
    endloop
  endfacet
  facet normal 0 0 -1
    outer loop
      vertex -4.84974 -2.8 0
      vertex -4.84974 2.8 0
      vertex -4.44278 3.40906 0
    endloop
  endfacet
  facet normal 0 0 -1
    outer loop
      vertex -5.17373 -2.14303 0
      vertex -4.84974 2.8 0
      vertex -4.84974 -2.8 0
    endloop
  endfacet
  facet normal 0 0 -1
    outer loop
      vertex -5.17373 -2.14303 0
      vertex -5.17373 2.14303 0
      vertex -4.84974 2.8 0
    endloop
  endfacet
  facet normal 0 0 -1
    outer loop
      vertex -5.40918 -1.44939 0
      vertex -5.17373 2.14303 0
      vertex -5.17373 -2.14303 0
    endloop
  endfacet
  facet normal 0 0 -1
    outer loop
      vertex -5.40918 -1.44939 0
      vertex -5.40918 1.44939 0
      vertex -5.17373 2.14303 0
    endloop
  endfacet
  facet normal 0 0 -1
    outer loop
      vertex -5.55209 -0.730947 0
      vertex -5.40918 1.44939 0
      vertex -5.40918 -1.44939 0
    endloop
  endfacet
  facet normal 0 0 -1
    outer loop
      vertex -5.55209 -0.730947 0
      vertex -5.55209 0.730947 0
      vertex -5.40918 1.44939 0
    endloop
  endfacet
  facet normal 0 -0 -1
    outer loop
      vertex -5.55209 0.730947 0
      vertex -5.55209 -0.730947 0
      vertex -5.6 0 0
    endloop
  endfacet
  facet normal -0.896868 0.442298 0
    outer loop
      vertex -5.17373 2.14303 0
      vertex -4.84974 2.8 2.75
      vertex -4.84974 2.8 0
    endloop
  endfacet
  facet normal -0.896868 0.442298 0
    outer loop
      vertex -4.84974 2.8 2.75
      vertex -5.17373 2.14303 0
      vertex -5.17373 2.14303 2.75
    endloop
  endfacet
  facet normal -0.83147 0.555569 0
    outer loop
      vertex -4.84974 2.8 0
      vertex -4.44278 3.40906 2.75
      vertex -4.44278 3.40906 0
    endloop
  endfacet
  facet normal -0.83147 0.555569 0
    outer loop
      vertex -4.44278 3.40906 2.75
      vertex -4.84974 2.8 0
      vertex -4.84974 2.8 2.75
    endloop
  endfacet
  facet normal -0.555569 -0.83147 0
    outer loop
      vertex -3.40906 -4.44278 0
      vertex -2.8 -4.84974 2.75
      vertex -3.40906 -4.44278 2.75
    endloop
  endfacet
  facet normal -0.555569 -0.83147 -0
    outer loop
      vertex -2.8 -4.84974 2.75
      vertex -3.40906 -4.44278 0
      vertex -2.8 -4.84974 0
    endloop
  endfacet
  facet normal 0.912177 0.0597887 0.405412
    outer loop
      vertex 5.55209 0.730947 2.75
      vertex 5.4 0 3.2
      vertex 5.6 0 2.75
    endloop
  endfacet
  facet normal -0.178342 -0.896568 0.405414
    outer loop
      vertex -0.704841 -5.3538 3.2
      vertex -1.44939 -5.40918 2.75
      vertex -0.730947 -5.55209 2.75
    endloop
  endfacet
  facet normal -0.896573 -0.178336 0.405405
    outer loop
      vertex -5.3538 -0.704841 3.2
      vertex -5.40918 -1.44939 2.75
      vertex -5.216 -1.39762 3.2
    endloop
  endfacet
  facet normal 0.760078 -0.507867 0.405405
    outer loop
      vertex 4.67654 -2.7 3.2
      vertex 4.44278 -3.40906 2.75
      vertex 4.84974 -2.8 2.75
    endloop
  endfacet
  facet normal 0.293827 -0.865621 0.40542
    outer loop
      vertex 2.06649 -4.98895 3.2
      vertex 1.44939 -5.40918 2.75
      vertex 2.14303 -5.17373 2.75
    endloop
  endfacet
  facet normal -0.404307 -0.81986 0.405421
    outer loop
      vertex -2.06649 -4.98895 3.2
      vertex -2.7 -4.67654 3.2
      vertex -2.14303 -5.17373 2.75
    endloop
  endfacet
  facet normal -0.507868 -0.760075 0.405409
    outer loop
      vertex -3.28731 -4.28411 3.2
      vertex -3.40906 -4.44278 2.75
      vertex -2.7 -4.67654 3.2
    endloop
  endfacet
  facet normal 0.602727 -0.687287 0.405409
    outer loop
      vertex 3.81838 -3.81838 3.2
      vertex 3.40906 -4.44278 2.75
      vertex 3.9598 -3.9598 2.75
    endloop
  endfacet
  facet normal 0.178342 0.896568 0.405414
    outer loop
      vertex 0.730947 5.55209 2.75
      vertex 0.704841 5.3538 3.2
      vertex 1.44939 5.40918 2.75
    endloop
  endfacet
  facet normal -0.0597901 -0.912176 0.405414
    outer loop
      vertex -0.704841 -5.3538 3.2
      vertex -0.730947 -5.55209 2.75
      vertex 0 -5.4 3.2
    endloop
  endfacet
  facet normal -0.865623 -0.293839 0.405407
    outer loop
      vertex -5.216 -1.39762 3.2
      vertex -5.40918 -1.44939 2.75
      vertex -4.98895 -2.06649 3.2
    endloop
  endfacet
  facet normal -0.0597887 0.912177 0.405412
    outer loop
      vertex 0 5.6 2.75
      vertex -0.730947 5.55209 2.75
      vertex 0 5.4 3.2
    endloop
  endfacet
  facet normal 0.81986 0.404307 0.405421
    outer loop
      vertex 5.17373 2.14303 2.75
      vertex 4.67654 2.7 3.2
      vertex 4.98895 2.06649 3.2
    endloop
  endfacet
  facet normal -0.760078 -0.507867 0.405405
    outer loop
      vertex -4.67654 -2.7 3.2
      vertex -4.84974 -2.8 2.75
      vertex -4.44278 -3.40906 2.75
    endloop
  endfacet
  facet normal 0.602727 0.687287 0.405409
    outer loop
      vertex 3.40906 4.44278 2.75
      vertex 3.28731 4.28411 3.2
      vertex 3.81838 3.81838 3.2
    endloop
  endfacet
  facet normal 0.0597901 -0.912176 0.405414
    outer loop
      vertex 0.704841 -5.3538 3.2
      vertex 0 -5.4 3.2
      vertex 0.730947 -5.55209 2.75
    endloop
  endfacet
  facet normal 0.687287 0.602727 0.405409
    outer loop
      vertex 3.9598 3.9598 2.75
      vertex 3.81838 3.81838 3.2
      vertex 4.44278 3.40906 2.75
    endloop
  endfacet
  facet normal -0.293827 0.865621 0.40542
    outer loop
      vertex -1.44939 5.40918 2.75
      vertex -2.14303 5.17373 2.75
      vertex -2.06649 4.98895 3.2
    endloop
  endfacet
  facet normal 0.865621 0.293827 0.40542
    outer loop
      vertex 5.17373 2.14303 2.75
      vertex 4.98895 2.06649 3.2
      vertex 5.40918 1.44939 2.75
    endloop
  endfacet
  facet normal -0.0597901 0.912176 0.405414
    outer loop
      vertex 0 5.4 3.2
      vertex -0.730947 5.55209 2.75
      vertex -0.704841 5.3538 3.2
    endloop
  endfacet
  facet normal -0.865621 0.293827 0.40542
    outer loop
      vertex -5.17373 2.14303 2.75
      vertex -5.40918 1.44939 2.75
      vertex -4.98895 2.06649 3.2
    endloop
  endfacet
  facet normal 0.602727 0.687287 0.405409
    outer loop
      vertex 3.9598 3.9598 2.75
      vertex 3.40906 4.44278 2.75
      vertex 3.81838 3.81838 3.2
    endloop
  endfacet
  facet normal 0.912177 -0.0597887 0.405412
    outer loop
      vertex 5.6 0 2.75
      vertex 5.4 0 3.2
      vertex 5.55209 -0.730947 2.75
    endloop
  endfacet
  facet normal 0.912176 0.0597901 0.405414
    outer loop
      vertex 5.55209 0.730947 2.75
      vertex 5.3538 0.704841 3.2
      vertex 5.4 0 3.2
    endloop
  endfacet
  facet normal -0.293827 -0.865621 0.40542
    outer loop
      vertex -2.06649 -4.98895 3.2
      vertex -2.14303 -5.17373 2.75
      vertex -1.44939 -5.40918 2.75
    endloop
  endfacet
  facet normal -0.602727 0.687287 0.405409
    outer loop
      vertex -3.40906 4.44278 2.75
      vertex -3.9598 3.9598 2.75
      vertex -3.81838 3.81838 3.2
    endloop
  endfacet
  facet normal 0.293827 0.865621 0.40542
    outer loop
      vertex 2.14303 5.17373 2.75
      vertex 1.44939 5.40918 2.75
      vertex 2.06649 4.98895 3.2
    endloop
  endfacet
  facet normal 0.293839 0.865623 0.405407
    outer loop
      vertex 1.44939 5.40918 2.75
      vertex 1.39762 5.216 3.2
      vertex 2.06649 4.98895 3.2
    endloop
  endfacet
  facet normal 0.404307 0.81986 0.405421
    outer loop
      vertex 2.14303 5.17373 2.75
      vertex 2.06649 4.98895 3.2
      vertex 2.7 4.67654 3.2
    endloop
  endfacet
  facet normal -0.865621 -0.293827 0.40542
    outer loop
      vertex -4.98895 -2.06649 3.2
      vertex -5.40918 -1.44939 2.75
      vertex -5.17373 -2.14303 2.75
    endloop
  endfacet
  facet normal 0.819861 0.404321 0.405404
    outer loop
      vertex 4.84974 2.8 2.75
      vertex 4.67654 2.7 3.2
      vertex 5.17373 2.14303 2.75
    endloop
  endfacet
  facet normal 0.404321 0.819861 0.405404
    outer loop
      vertex 2.8 4.84974 2.75
      vertex 2.14303 5.17373 2.75
      vertex 2.7 4.67654 3.2
    endloop
  endfacet
  facet normal 0.687287 0.602727 0.405409
    outer loop
      vertex 4.44278 3.40906 2.75
      vertex 3.81838 3.81838 3.2
      vertex 4.28411 3.28731 3.2
    endloop
  endfacet
  facet normal 0.865623 0.293839 0.405407
    outer loop
      vertex 5.40918 1.44939 2.75
      vertex 4.98895 2.06649 3.2
      vertex 5.216 1.39762 3.2
    endloop
  endfacet
  facet normal -0.687287 0.602727 0.405409
    outer loop
      vertex -3.9598 3.9598 2.75
      vertex -4.44278 3.40906 2.75
      vertex -3.81838 3.81838 3.2
    endloop
  endfacet
  facet normal 0.0597887 -0.912177 0.405412
    outer loop
      vertex 0 -5.4 3.2
      vertex 0 -5.6 2.75
      vertex 0.730947 -5.55209 2.75
    endloop
  endfacet
  facet normal 0.81986 -0.404307 0.405421
    outer loop
      vertex 4.98895 -2.06649 3.2
      vertex 4.67654 -2.7 3.2
      vertex 5.17373 -2.14303 2.75
    endloop
  endfacet
  facet normal -0.602727 -0.687287 0.405409
    outer loop
      vertex -3.81838 -3.81838 3.2
      vertex -3.9598 -3.9598 2.75
      vertex -3.40906 -4.44278 2.75
    endloop
  endfacet
  facet normal 0.178342 -0.896568 0.405414
    outer loop
      vertex 1.44939 -5.40918 2.75
      vertex 0.704841 -5.3538 3.2
      vertex 0.730947 -5.55209 2.75
    endloop
  endfacet
  facet normal -0.0597887 -0.912177 0.405412
    outer loop
      vertex 0 -5.4 3.2
      vertex -0.730947 -5.55209 2.75
      vertex 0 -5.6 2.75
    endloop
  endfacet
  facet normal 0.687287 -0.602727 0.405409
    outer loop
      vertex 4.44278 -3.40906 2.75
      vertex 3.81838 -3.81838 3.2
      vertex 3.9598 -3.9598 2.75
    endloop
  endfacet
  facet normal 0.896573 0.178336 0.405405
    outer loop
      vertex 5.40918 1.44939 2.75
      vertex 5.216 1.39762 3.2
      vertex 5.3538 0.704841 3.2
    endloop
  endfacet
  facet normal -0.602727 0.687287 0.405409
    outer loop
      vertex -3.40906 4.44278 2.75
      vertex -3.81838 3.81838 3.2
      vertex -3.28731 4.28411 3.2
    endloop
  endfacet
  facet normal -0.178336 -0.896573 0.405405
    outer loop
      vertex -1.39762 -5.216 3.2
      vertex -1.44939 -5.40918 2.75
      vertex -0.704841 -5.3538 3.2
    endloop
  endfacet
  facet normal 0.896568 0.178342 0.405414
    outer loop
      vertex 5.40918 1.44939 2.75
      vertex 5.3538 0.704841 3.2
      vertex 5.55209 0.730947 2.75
    endloop
  endfacet
  facet normal -0.687287 -0.602727 0.405409
    outer loop
      vertex -3.81838 -3.81838 3.2
      vertex -4.44278 -3.40906 2.75
      vertex -3.9598 -3.9598 2.75
    endloop
  endfacet
  facet normal 0.507868 0.760075 0.405409
    outer loop
      vertex 3.40906 4.44278 2.75
      vertex 2.7 4.67654 3.2
      vertex 3.28731 4.28411 3.2
    endloop
  endfacet
  facet normal 0.865621 -0.293827 0.40542
    outer loop
      vertex 5.40918 -1.44939 2.75
      vertex 4.98895 -2.06649 3.2
      vertex 5.17373 -2.14303 2.75
    endloop
  endfacet
  facet normal 0.760075 -0.507868 0.405409
    outer loop
      vertex 4.67654 -2.7 3.2
      vertex 4.28411 -3.28731 3.2
      vertex 4.44278 -3.40906 2.75
    endloop
  endfacet
  facet normal 0.178336 0.896573 0.405405
    outer loop
      vertex 1.44939 5.40918 2.75
      vertex 0.704841 5.3538 3.2
      vertex 1.39762 5.216 3.2
    endloop
  endfacet
  facet normal -0.293839 -0.865623 0.405407
    outer loop
      vertex -1.39762 -5.216 3.2
      vertex -2.06649 -4.98895 3.2
      vertex -1.44939 -5.40918 2.75
    endloop
  endfacet
  facet normal 0.760075 0.507868 0.405409
    outer loop
      vertex 4.44278 3.40906 2.75
      vertex 4.28411 3.28731 3.2
      vertex 4.67654 2.7 3.2
    endloop
  endfacet
  facet normal -0.404307 0.81986 0.405421
    outer loop
      vertex -2.14303 5.17373 2.75
      vertex -2.7 4.67654 3.2
      vertex -2.06649 4.98895 3.2
    endloop
  endfacet
  facet normal 0.0597901 0.912176 0.405414
    outer loop
      vertex 0.730947 5.55209 2.75
      vertex 0 5.4 3.2
      vertex 0.704841 5.3538 3.2
    endloop
  endfacet
  facet normal 0.865623 -0.293839 0.405407
    outer loop
      vertex 5.216 -1.39762 3.2
      vertex 4.98895 -2.06649 3.2
      vertex 5.40918 -1.44939 2.75
    endloop
  endfacet
  facet normal 0.0597887 0.912177 0.405412
    outer loop
      vertex 0 5.6 2.75
      vertex 0 5.4 3.2
      vertex 0.730947 5.55209 2.75
    endloop
  endfacet
  facet normal -0.507868 0.760075 0.405409
    outer loop
      vertex -2.7 4.67654 3.2
      vertex -3.40906 4.44278 2.75
      vertex -3.28731 4.28411 3.2
    endloop
  endfacet
  facet normal -0.81986 -0.404307 0.405421
    outer loop
      vertex -4.98895 -2.06649 3.2
      vertex -5.17373 -2.14303 2.75
      vertex -4.67654 -2.7 3.2
    endloop
  endfacet
  facet normal -0.896568 0.178342 0.405414
    outer loop
      vertex -5.40918 1.44939 2.75
      vertex -5.55209 0.730947 2.75
      vertex -5.3538 0.704841 3.2
    endloop
  endfacet
  facet normal 0.819861 -0.404321 0.405404
    outer loop
      vertex 5.17373 -2.14303 2.75
      vertex 4.67654 -2.7 3.2
      vertex 4.84974 -2.8 2.75
    endloop
  endfacet
  facet normal -0.896568 -0.178342 0.405414
    outer loop
      vertex -5.3538 -0.704841 3.2
      vertex -5.55209 -0.730947 2.75
      vertex -5.40918 -1.44939 2.75
    endloop
  endfacet
  facet normal -0.687287 -0.602727 0.405409
    outer loop
      vertex -4.28411 -3.28731 3.2
      vertex -4.44278 -3.40906 2.75
      vertex -3.81838 -3.81838 3.2
    endloop
  endfacet
  facet normal -0.178336 0.896573 0.405405
    outer loop
      vertex -0.704841 5.3538 3.2
      vertex -1.44939 5.40918 2.75
      vertex -1.39762 5.216 3.2
    endloop
  endfacet
  facet normal 0.507867 0.760078 0.405405
    outer loop
      vertex 2.8 4.84974 2.75
      vertex 2.7 4.67654 3.2
      vertex 3.40906 4.44278 2.75
    endloop
  endfacet
  facet normal 0.687287 -0.602727 0.405409
    outer loop
      vertex 4.28411 -3.28731 3.2
      vertex 3.81838 -3.81838 3.2
      vertex 4.44278 -3.40906 2.75
    endloop
  endfacet
  facet normal 0.896568 -0.178342 0.405414
    outer loop
      vertex 5.55209 -0.730947 2.75
      vertex 5.3538 -0.704841 3.2
      vertex 5.40918 -1.44939 2.75
    endloop
  endfacet
  facet normal 0.912176 -0.0597901 0.405414
    outer loop
      vertex 5.4 0 3.2
      vertex 5.3538 -0.704841 3.2
      vertex 5.55209 -0.730947 2.75
    endloop
  endfacet
  facet normal -0.404321 -0.819861 0.405404
    outer loop
      vertex -2.7 -4.67654 3.2
      vertex -2.8 -4.84974 2.75
      vertex -2.14303 -5.17373 2.75
    endloop
  endfacet
  facet normal 0.293839 -0.865623 0.405407
    outer loop
      vertex 2.06649 -4.98895 3.2
      vertex 1.39762 -5.216 3.2
      vertex 1.44939 -5.40918 2.75
    endloop
  endfacet
  facet normal -0.896573 0.178336 0.405405
    outer loop
      vertex -5.216 1.39762 3.2
      vertex -5.40918 1.44939 2.75
      vertex -5.3538 0.704841 3.2
    endloop
  endfacet
  facet normal -0.912176 0.0597901 0.405414
    outer loop
      vertex -5.3538 0.704841 3.2
      vertex -5.55209 0.730947 2.75
      vertex -5.4 0 3.2
    endloop
  endfacet
  facet normal -0.178342 0.896568 0.405414
    outer loop
      vertex -0.730947 5.55209 2.75
      vertex -1.44939 5.40918 2.75
      vertex -0.704841 5.3538 3.2
    endloop
  endfacet
  facet normal -0.404321 0.819861 0.405404
    outer loop
      vertex -2.14303 5.17373 2.75
      vertex -2.8 4.84974 2.75
      vertex -2.7 4.67654 3.2
    endloop
  endfacet
  facet normal -0.865623 0.293839 0.405407
    outer loop
      vertex -4.98895 2.06649 3.2
      vertex -5.40918 1.44939 2.75
      vertex -5.216 1.39762 3.2
    endloop
  endfacet
  facet normal -0.293839 0.865623 0.405407
    outer loop
      vertex -1.44939 5.40918 2.75
      vertex -2.06649 4.98895 3.2
      vertex -1.39762 5.216 3.2
    endloop
  endfacet
  facet normal -0.507867 0.760078 0.405405
    outer loop
      vertex -2.8 4.84974 2.75
      vertex -3.40906 4.44278 2.75
      vertex -2.7 4.67654 3.2
    endloop
  endfacet
  facet normal -0.81986 0.404307 0.405421
    outer loop
      vertex -4.67654 2.7 3.2
      vertex -5.17373 2.14303 2.75
      vertex -4.98895 2.06649 3.2
    endloop
  endfacet
  facet normal -0.507867 -0.760078 0.405405
    outer loop
      vertex -2.7 -4.67654 3.2
      vertex -3.40906 -4.44278 2.75
      vertex -2.8 -4.84974 2.75
    endloop
  endfacet
  facet normal 0.178336 -0.896573 0.405405
    outer loop
      vertex 1.39762 -5.216 3.2
      vertex 0.704841 -5.3538 3.2
      vertex 1.44939 -5.40918 2.75
    endloop
  endfacet
  facet normal 0.760078 0.507867 0.405405
    outer loop
      vertex 4.84974 2.8 2.75
      vertex 4.44278 3.40906 2.75
      vertex 4.67654 2.7 3.2
    endloop
  endfacet
  facet normal 0.507867 -0.760078 0.405405
    outer loop
      vertex 3.40906 -4.44278 2.75
      vertex 2.7 -4.67654 3.2
      vertex 2.8 -4.84974 2.75
    endloop
  endfacet
  facet normal 0.404321 -0.819861 0.405404
    outer loop
      vertex 2.7 -4.67654 3.2
      vertex 2.14303 -5.17373 2.75
      vertex 2.8 -4.84974 2.75
    endloop
  endfacet
  facet normal -0.760078 0.507867 0.405405
    outer loop
      vertex -4.44278 3.40906 2.75
      vertex -4.84974 2.8 2.75
      vertex -4.67654 2.7 3.2
    endloop
  endfacet
  facet normal 0.602727 -0.687287 0.405409
    outer loop
      vertex 3.81838 -3.81838 3.2
      vertex 3.28731 -4.28411 3.2
      vertex 3.40906 -4.44278 2.75
    endloop
  endfacet
  facet normal -0.687287 0.602727 0.405409
    outer loop
      vertex -3.81838 3.81838 3.2
      vertex -4.44278 3.40906 2.75
      vertex -4.28411 3.28731 3.2
    endloop
  endfacet
  facet normal 0.404307 -0.81986 0.405421
    outer loop
      vertex 2.7 -4.67654 3.2
      vertex 2.06649 -4.98895 3.2
      vertex 2.14303 -5.17373 2.75
    endloop
  endfacet
  facet normal -0.602727 -0.687287 0.405409
    outer loop
      vertex -3.28731 -4.28411 3.2
      vertex -3.81838 -3.81838 3.2
      vertex -3.40906 -4.44278 2.75
    endloop
  endfacet
  facet normal -0.819861 -0.404321 0.405404
    outer loop
      vertex -4.67654 -2.7 3.2
      vertex -5.17373 -2.14303 2.75
      vertex -4.84974 -2.8 2.75
    endloop
  endfacet
  facet normal -0.912177 0.0597887 0.405412
    outer loop
      vertex -5.55209 0.730947 2.75
      vertex -5.6 0 2.75
      vertex -5.4 0 3.2
    endloop
  endfacet
  facet normal 0.896573 -0.178336 0.405405
    outer loop
      vertex 5.3538 -0.704841 3.2
      vertex 5.216 -1.39762 3.2
      vertex 5.40918 -1.44939 2.75
    endloop
  endfacet
  facet normal -0.760075 0.507868 0.405409
    outer loop
      vertex -4.44278 3.40906 2.75
      vertex -4.67654 2.7 3.2
      vertex -4.28411 3.28731 3.2
    endloop
  endfacet
  facet normal -0.760075 -0.507868 0.405409
    outer loop
      vertex -4.28411 -3.28731 3.2
      vertex -4.67654 -2.7 3.2
      vertex -4.44278 -3.40906 2.75
    endloop
  endfacet
  facet normal 0 0 1
    outer loop
      vertex 5.3538 0.704841 3.2
      vertex 5.3538 -0.704841 3.2
      vertex 5.4 0 3.2
    endloop
  endfacet
  facet normal 0 0 1
    outer loop
      vertex 5.216 1.39762 3.2
      vertex 5.3538 -0.704841 3.2
      vertex 5.3538 0.704841 3.2
    endloop
  endfacet
  facet normal 0 0 1
    outer loop
      vertex 5.216 1.39762 3.2
      vertex 5.216 -1.39762 3.2
      vertex 5.3538 -0.704841 3.2
    endloop
  endfacet
  facet normal 0 0 1
    outer loop
      vertex 4.98895 2.06649 3.2
      vertex 5.216 -1.39762 3.2
      vertex 5.216 1.39762 3.2
    endloop
  endfacet
  facet normal 0 0 1
    outer loop
      vertex 4.98895 2.06649 3.2
      vertex 4.98895 -2.06649 3.2
      vertex 5.216 -1.39762 3.2
    endloop
  endfacet
  facet normal 0 0 1
    outer loop
      vertex 4.67654 2.7 3.2
      vertex 4.98895 -2.06649 3.2
      vertex 4.98895 2.06649 3.2
    endloop
  endfacet
  facet normal 0 0 1
    outer loop
      vertex 4.67654 2.7 3.2
      vertex 4.67654 -2.7 3.2
      vertex 4.98895 -2.06649 3.2
    endloop
  endfacet
  facet normal 0 0 1
    outer loop
      vertex 4.28411 3.28731 3.2
      vertex 4.67654 -2.7 3.2
      vertex 4.67654 2.7 3.2
    endloop
  endfacet
  facet normal 0 0 1
    outer loop
      vertex 4.28411 3.28731 3.2
      vertex 4.28411 -3.28731 3.2
      vertex 4.67654 -2.7 3.2
    endloop
  endfacet
  facet normal 0 0 1
    outer loop
      vertex 3.81838 3.81838 3.2
      vertex 4.28411 -3.28731 3.2
      vertex 4.28411 3.28731 3.2
    endloop
  endfacet
  facet normal 0 0 1
    outer loop
      vertex 3.81838 3.81838 3.2
      vertex 3.81838 -3.81838 3.2
      vertex 4.28411 -3.28731 3.2
    endloop
  endfacet
  facet normal 0 0 1
    outer loop
      vertex 3.28731 4.28411 3.2
      vertex 3.81838 -3.81838 3.2
      vertex 3.81838 3.81838 3.2
    endloop
  endfacet
  facet normal 0 0 1
    outer loop
      vertex 3.28731 4.28411 3.2
      vertex 3.28731 -4.28411 3.2
      vertex 3.81838 -3.81838 3.2
    endloop
  endfacet
  facet normal 0 0 1
    outer loop
      vertex 2.7 4.67654 3.2
      vertex 3.28731 -4.28411 3.2
      vertex 3.28731 4.28411 3.2
    endloop
  endfacet
  facet normal 0 0 1
    outer loop
      vertex 2.7 4.67654 3.2
      vertex 2.7 -4.67654 3.2
      vertex 3.28731 -4.28411 3.2
    endloop
  endfacet
  facet normal 0 0 1
    outer loop
      vertex 2.06649 4.98895 3.2
      vertex 2.7 -4.67654 3.2
      vertex 2.7 4.67654 3.2
    endloop
  endfacet
  facet normal 0 0 1
    outer loop
      vertex 2.06649 4.98895 3.2
      vertex 2.06649 -4.98895 3.2
      vertex 2.7 -4.67654 3.2
    endloop
  endfacet
  facet normal 0 0 1
    outer loop
      vertex 1.39762 5.216 3.2
      vertex 2.06649 -4.98895 3.2
      vertex 2.06649 4.98895 3.2
    endloop
  endfacet
  facet normal 0 0 1
    outer loop
      vertex 1.39762 5.216 3.2
      vertex 1.39762 -5.216 3.2
      vertex 2.06649 -4.98895 3.2
    endloop
  endfacet
  facet normal 0 0 1
    outer loop
      vertex 0.704841 5.3538 3.2
      vertex 1.39762 -5.216 3.2
      vertex 1.39762 5.216 3.2
    endloop
  endfacet
  facet normal 0 0 1
    outer loop
      vertex 0.704841 5.3538 3.2
      vertex 0.704841 -5.3538 3.2
      vertex 1.39762 -5.216 3.2
    endloop
  endfacet
  facet normal 0 0 1
    outer loop
      vertex 0 5.4 3.2
      vertex 0.704841 -5.3538 3.2
      vertex 0.704841 5.3538 3.2
    endloop
  endfacet
  facet normal 0 0 1
    outer loop
      vertex 0 5.4 3.2
      vertex 0 -5.4 3.2
      vertex 0.704841 -5.3538 3.2
    endloop
  endfacet
  facet normal -0 0 1
    outer loop
      vertex -0.704841 5.3538 3.2
      vertex 0 -5.4 3.2
      vertex 0 5.4 3.2
    endloop
  endfacet
  facet normal 0 0 1
    outer loop
      vertex -0.704841 5.3538 3.2
      vertex -0.704841 -5.3538 3.2
      vertex 0 -5.4 3.2
    endloop
  endfacet
  facet normal -0 0 1
    outer loop
      vertex -1.39762 5.216 3.2
      vertex -0.704841 -5.3538 3.2
      vertex -0.704841 5.3538 3.2
    endloop
  endfacet
  facet normal 0 0 1
    outer loop
      vertex -1.39762 5.216 3.2
      vertex -1.39762 -5.216 3.2
      vertex -0.704841 -5.3538 3.2
    endloop
  endfacet
  facet normal -0 0 1
    outer loop
      vertex -2.06649 4.98895 3.2
      vertex -1.39762 -5.216 3.2
      vertex -1.39762 5.216 3.2
    endloop
  endfacet
  facet normal 0 0 1
    outer loop
      vertex -2.06649 4.98895 3.2
      vertex -2.06649 -4.98895 3.2
      vertex -1.39762 -5.216 3.2
    endloop
  endfacet
  facet normal -0 0 1
    outer loop
      vertex -2.7 4.67654 3.2
      vertex -2.06649 -4.98895 3.2
      vertex -2.06649 4.98895 3.2
    endloop
  endfacet
  facet normal 0 0 1
    outer loop
      vertex -2.7 4.67654 3.2
      vertex -2.7 -4.67654 3.2
      vertex -2.06649 -4.98895 3.2
    endloop
  endfacet
  facet normal -0 0 1
    outer loop
      vertex -3.28731 4.28411 3.2
      vertex -2.7 -4.67654 3.2
      vertex -2.7 4.67654 3.2
    endloop
  endfacet
  facet normal 0 0 1
    outer loop
      vertex -3.28731 4.28411 3.2
      vertex -3.28731 -4.28411 3.2
      vertex -2.7 -4.67654 3.2
    endloop
  endfacet
  facet normal -0 0 1
    outer loop
      vertex -3.81838 3.81838 3.2
      vertex -3.28731 -4.28411 3.2
      vertex -3.28731 4.28411 3.2
    endloop
  endfacet
  facet normal 0 0 1
    outer loop
      vertex -3.81838 3.81838 3.2
      vertex -3.81838 -3.81838 3.2
      vertex -3.28731 -4.28411 3.2
    endloop
  endfacet
  facet normal -0 0 1
    outer loop
      vertex -4.28411 3.28731 3.2
      vertex -3.81838 -3.81838 3.2
      vertex -3.81838 3.81838 3.2
    endloop
  endfacet
  facet normal 0 0 1
    outer loop
      vertex -4.28411 3.28731 3.2
      vertex -4.28411 -3.28731 3.2
      vertex -3.81838 -3.81838 3.2
    endloop
  endfacet
  facet normal -0 0 1
    outer loop
      vertex -4.67654 2.7 3.2
      vertex -4.28411 -3.28731 3.2
      vertex -4.28411 3.28731 3.2
    endloop
  endfacet
  facet normal 0 0 1
    outer loop
      vertex -4.67654 2.7 3.2
      vertex -4.67654 -2.7 3.2
      vertex -4.28411 -3.28731 3.2
    endloop
  endfacet
  facet normal -0 0 1
    outer loop
      vertex -4.98895 2.06649 3.2
      vertex -4.67654 -2.7 3.2
      vertex -4.67654 2.7 3.2
    endloop
  endfacet
  facet normal 0 0 1
    outer loop
      vertex -4.98895 2.06649 3.2
      vertex -4.98895 -2.06649 3.2
      vertex -4.67654 -2.7 3.2
    endloop
  endfacet
  facet normal -0 0 1
    outer loop
      vertex -5.216 1.39762 3.2
      vertex -4.98895 -2.06649 3.2
      vertex -4.98895 2.06649 3.2
    endloop
  endfacet
  facet normal 0 0 1
    outer loop
      vertex -5.216 1.39762 3.2
      vertex -5.216 -1.39762 3.2
      vertex -4.98895 -2.06649 3.2
    endloop
  endfacet
  facet normal -0 0 1
    outer loop
      vertex -5.3538 0.704841 3.2
      vertex -5.216 -1.39762 3.2
      vertex -5.216 1.39762 3.2
    endloop
  endfacet
  facet normal 0 0 1
    outer loop
      vertex -5.3538 0.704841 3.2
      vertex -5.3538 -0.704841 3.2
      vertex -5.216 -1.39762 3.2
    endloop
  endfacet
  facet normal 0 -0 1
    outer loop
      vertex -5.3538 -0.704841 3.2
      vertex -5.3538 0.704841 3.2
      vertex -5.4 0 3.2
    endloop
  endfacet
  facet normal -0.912177 -0.0597887 0.405412
    outer loop
      vertex -5.4 0 3.2
      vertex -5.6 0 2.75
      vertex -5.55209 -0.730947 2.75
    endloop
  endfacet
  facet normal -0.912176 -0.0597901 0.405414
    outer loop
      vertex -5.4 0 3.2
      vertex -5.55209 -0.730947 2.75
      vertex -5.3538 -0.704841 3.2
    endloop
  endfacet
  facet normal 0.507868 -0.760075 0.405409
    outer loop
      vertex 3.28731 -4.28411 3.2
      vertex 2.7 -4.67654 3.2
      vertex 3.40906 -4.44278 2.75
    endloop
  endfacet
  facet normal -0.819861 0.404321 0.405404
    outer loop
      vertex -4.84974 2.8 2.75
      vertex -5.17373 2.14303 2.75
      vertex -4.67654 2.7 3.2
    endloop
  endfacet
endsolid OpenSCAD_Model
